<svg xmlns="http://www.w3.org/2000/svg" xmlns:xlink="http://www.w3.org/1999/xlink" version="1.1" x="0px" y="0px" viewBox="0 0 512 640" style="enable-background:new 0 0 512 512;" xml:space="preserve"><g><g><g><g><path d="M458.921,260.379c0-1.66-1.071-3.258-2.134-4.328c-1.066-1.596-2.604-2.129-4.207-2.129      c-2.135,0-3.732,0.533-4.797,2.129c-1.07,1.07-1.602,2.668-1.602,4.328c0,1.539,0.531,3.199,1.602,4.797      c1.064,1.07,2.662,1.604,4.797,1.604c1.604,0,3.141-0.533,4.207-1.604C457.85,263.578,458.921,261.918,458.921,260.379z       M463.185,249.594c3.142,2.727,4.797,6.457,4.797,10.785c0,4.266-2.13,7.996-4.797,11.254c-2.668,2.668-6.874,4.27-10.604,4.27      c-4.266,0-8.529-1.602-11.195-4.27v-0.531c-2.61-2.727-4.271-6.457-4.271-10.723c0-4.328,1.66-8.059,4.271-10.785v-0.531      c3.199-2.668,6.93-4.264,11.195-4.264C456.787,244.799,460.517,246.395,463.185,249.594z"/><path d="M446.182,386.453v26.25h-9.067v-21.98v-9.125h4.271C444.051,381.598,446.182,383.793,446.182,386.453z"/><path d="M445.943,321.641c0.121,1.186,0.238,2.371,0.238,3.617C446.182,324.012,446.064,322.826,445.943,321.641z"/><path d="M445.59,319.152c0.174,0.828,0.295,1.66,0.354,2.488C445.885,320.813,445.764,319.98,445.59,319.152z"/><path d="M445.531,318.857c-0.121-0.713-0.236-1.424-0.475-2.135C445.295,317.434,445.41,318.145,445.531,318.857z"/><path d="M444.994,316.428c-0.115-0.713-0.295-1.365-0.531-2.014C444.642,315.063,444.879,315.715,444.994,316.428z"/><path d="M445.826,419.34c-0.416,1.064-1.185,1.957-2.248,2.488h-2.193C443.398,421.828,445.057,420.938,445.826,419.34z"/><path d="M443.455,311.746c-0.179-0.596-0.416-1.129-0.653-1.66C443.103,310.617,443.34,311.15,443.455,311.746z"/><path d="M441.385,422.359H70.02c-0.59,0-1.243-0.18-1.776-0.531h1.776h371.365h2.193      C442.923,422.18,442.154,422.359,441.385,422.359z"/><path d="M438.301,302.385c0.596,0.713,1.129,1.48,1.602,2.309C439.371,303.865,438.896,303.098,438.301,302.385z"/><path d="M438.185,352.623c1.064,1.127,2.129,1.604,3.2,1.604c2.666,0,4.797-2.137,4.797-4.803v37.029      c0-2.66-2.131-4.855-4.797-4.855h-4.271v-29.859C437.473,351.977,437.826,352.328,438.185,352.623z"/><rect x="74.822" y="381.598" width="362.292" height="9.125"/><rect x="74.822" y="412.703" width="362.292" height="0.531"/><path d="M436.877,322.41c-0.058-0.949-0.231-1.898-0.411-2.842C436.704,320.453,436.819,321.402,436.877,322.41z"/><path d="M432.261,309.496c2.128,2.898,3.552,6.336,4.205,10.072C435.697,315.895,434.216,312.516,432.261,309.496z"/><path d="M431.844,295.273c1.897,1.604,3.674,3.379,5.155,5.395c-0.828-0.951-1.603-1.836-2.488-2.727      C433.684,296.992,432.792,296.164,431.844,295.273z"/><path d="M432.08,309.258c-0.416-0.596-0.827-1.127-1.301-1.66c-0.417-0.59-0.892-1.188-1.309-1.775      C430.42,306.887,431.312,308.07,432.08,309.258z"/><path d="M426.099,302.385c0.711,0.59,1.359,1.244,2.013,1.955C427.458,303.688,426.81,303.039,426.099,302.385z"/><path d="M421.296,299.063c1.66,0.891,3.32,2.02,4.803,3.322C424.616,301.199,423.014,300.076,421.296,299.063z"/><path d="M430.657,294.389c-3.674-2.846-7.88-4.982-12.202-6.521C422.956,289.232,427.104,291.484,430.657,294.389z"/><path d="M446.182,325.258c0,0.172,0,0.352,0,0.531v23.635c0,2.666-2.131,4.803-4.797,4.803c-1.071,0-2.136-0.477-3.2-1.604      c-0.358-0.295-0.712-0.646-1.07-0.885v-11.973v-13.977c0-1.129-0.059-2.316-0.237-3.379c-0.058-1.008-0.173-1.957-0.411-2.842      c-0.653-3.736-2.077-7.174-4.205-10.072c-0.059-0.121-0.122-0.18-0.181-0.238c-0.769-1.188-1.66-2.371-2.609-3.436      c-0.468-0.533-0.885-1.008-1.359-1.482c-0.653-0.711-1.302-1.365-2.013-1.955c-1.482-1.303-3.143-2.432-4.803-3.322      c-0.475-0.293-1.007-0.531-1.481-0.703c-2.898-1.547-6.098-2.553-9.534-2.906c0.827-0.891,1.359-2.135,1.359-3.438v-4.859      c0.532,0,1.07,0,1.602,0c1.597,0,2.668,0.596,4.266,0.596h0.531c0.121,0.059,0.296,0.115,0.417,0.115      c4.322,1.539,8.528,3.676,12.202,6.521c0.416,0.232,0.771,0.592,1.187,0.885c0.948,0.891,1.84,1.719,2.667,2.668      c0.886,0.891,1.66,1.775,2.488,2.727c0.474,0.473,0.827,1.004,1.186,1.537c0.058,0.059,0.058,0.121,0.116,0.18      c0.596,0.713,1.07,1.48,1.602,2.309c1.124,1.717,2.071,3.494,2.899,5.393c0.237,0.531,0.475,1.064,0.653,1.66      c0.417,0.885,0.712,1.719,1.008,2.668c0.236,0.648,0.416,1.301,0.531,2.014c0.063,0.057,0.063,0.178,0.063,0.295      c0.238,0.711,0.354,1.422,0.475,2.135c0.059,0.115,0.059,0.174,0.059,0.295c0.174,0.828,0.295,1.66,0.354,2.488      C446.064,322.826,446.182,324.012,446.182,325.258z"/><path d="M411.64,286.387c2.192,0.238,4.327,0.711,6.398,1.365h-0.531c-1.598,0-2.669-0.596-4.266-0.596      c-0.531,0-1.069,0-1.602,0V286.387z"/><path d="M410.28,295.453c3.437,0.354,6.636,1.359,9.534,2.906c-1.302-0.656-2.604-1.129-3.905-1.482l-3.199-0.596h-3.559      C409.568,296.043,409.921,295.748,410.28,295.453z"/><path d="M411.64,264.645v5.332c0-0.949-0.411-1.895-1.123-2.666C411.229,266.543,411.64,265.592,411.64,264.645z"/><path d="M406.901,286.09c1.602,0,3.142,0.117,4.738,0.297v0.77c-1.007,0-1.956,0-2.668,0h-6.336v-1.066H406.901z"/><path d="M406.901,296.877h-302.34c-0.648,0-1.302-0.236-1.892-0.596h0.353h305.949h0.18      C408.503,296.641,407.728,296.877,406.901,296.877z"/><path d="M401.688,207.941c5.688,5.752,8.945,13.273,9.952,21.275c0.532,11.787,0,23.635,0,35.428v-32.703      C411.64,222.875,407.433,214.406,401.688,207.941z"/><path d="M402.636,265.707h4.266c1.479,0,2.782,0.656,3.615,1.604c-0.833,0.949-2.136,1.596-3.615,1.596      c-1.662,0-2.726-0.531-3.732-1.596l-0.533-0.596V265.707z"/><path d="M406.901,268.906c1.479,0,2.782-0.646,3.615-1.596c0.712,0.771,1.123,1.717,1.123,2.666v16.41      c-1.597-0.18-3.137-0.297-4.738-0.297h-4.266v-11.258v-8.117l0.533,0.596C404.176,268.375,405.239,268.906,406.901,268.906z"/><path d="M402.636,230.814c0.533,6.988,0,14.516,0,22.037v-20.91c0-0.891-0.056-1.717-0.121-2.609      c0.065,0.295,0.121,0.654,0.121,0.949V230.814z"/><rect x="109.364" y="287.156" width="293.272" height="0.596"/><rect x="109.364" y="286.09" width="293.272" height="1.066"/><polygon points="402.636,265.707 402.636,266.715 401.746,265.707     "/><path d="M395.172,214.227c3.791,3.551,6.695,8.828,7.343,15.105C401.803,223.35,398.904,217.957,395.172,214.227z"/><path d="M401.271,207.531c-0.411-0.475-0.827-0.891-1.302-1.242c0.179,0.113,0.353,0.293,0.531,0.41      C400.796,206.936,401.097,207.23,401.271,207.531z"/><path d="M383.677,198.229c6.162,1.127,11.728,3.912,16.293,8.061C395.289,202.434,389.839,199.473,383.677,198.229z"/><path d="M394.282,213.393c-0.476-0.412-1.007-0.828-1.481-1.244C393.333,212.508,393.807,212.924,394.282,213.393z"/><path d="M390.902,210.789c0.654,0.354,1.309,0.828,1.898,1.359C392.147,211.674,391.557,211.205,390.902,210.789z"/><path d="M390.902,210.789c-1.359-0.828-2.782-1.604-4.206-2.193C388.177,209.129,389.601,209.84,390.902,210.789z"/><path d="M383.496,198.229c-1.005-0.238-2.013-0.354-3.077-0.475C381.425,197.813,382.491,197.99,383.496,198.229z"/><path d="M378.7,490.55c2.668,0,4.796,2.137,4.796,4.803c0,2.662-2.128,4.264-4.796,4.264h-23.346      c-2.667,0-4.264-1.602-4.264-4.264c0-2.666,1.597-4.803,4.264-4.803H378.7z"/><path d="M386.696,208.596c-2.962-1.244-6.161-1.896-9.598-1.896h-4.086c1.539-0.77,2.546-2.252,2.546-3.791v-5.334h1.54      c1.128,0,2.25,0.063,3.32,0.18c1.064,0.121,2.072,0.236,3.077,0.475c0.059,0,0.122,0,0.181,0      c6.162,1.244,11.612,4.205,16.293,8.061c0.475,0.352,0.891,0.768,1.302,1.242c0.236,0.115,0.358,0.238,0.416,0.41      c5.745,6.465,9.952,14.934,9.952,24v32.703c0,0.947-0.411,1.898-1.123,2.666c-0.833-0.947-2.136-1.604-3.615-1.604h-4.266      v-12.855c0-7.521,0.533-15.049,0-22.037v-0.533c0-0.295-0.056-0.654-0.121-0.949c-0.647-6.277-3.552-11.555-7.343-15.105      c-0.178-0.18-0.357-0.359-0.538-0.533c-0.114-0.121-0.236-0.236-0.352-0.301c-0.476-0.469-0.949-0.885-1.481-1.244      c-0.59-0.531-1.244-1.006-1.898-1.359C389.601,209.84,388.177,209.129,386.696,208.596z"/><path d="M375.559,180.928v16.646h-9.066v-11.85v-9.061h4.271C373.423,176.664,375.559,178.262,375.559,180.928z"/><path d="M389.839,98.278l-15.94,9.715c-2.071,1.602-5.271,0.475-6.336-1.656c-1.07-2.133-0.532-4.801,1.597-5.865l9.541-5.924      l-9.541-5.336c-2.129-1.654-2.667-4.322-1.597-6.457c1.064-2.191,4.265-2.666,6.336-1.598l15.94,9.658      c2.667,1.064,3.256,3.732,2.135,5.867C391.436,97.747,390.902,98.278,389.839,98.278z"/><path d="M370.999,144.194c2.963,5.867,4.56,12.445,4.56,19.55v17.184c0-2.666-2.136-4.264-4.796-4.264h-4.271v-12.92      c0-1.893-0.116-3.789-0.475-5.623c0.654-0.775,1.365-1.604,2.077-2.43l3.141-4.269c1.066-1.066,1.656-2.662,1.066-4.266      C371.886,146.151,371.475,145.143,370.999,144.194z"/><path d="M370.763,207.23H140.706c-0.833,0-1.48-0.174-2.077-0.531h234.384C372.359,207.057,371.59,207.23,370.763,207.23z"/><path d="M369.455,141.354c0.596,0.885,1.128,1.893,1.544,2.84C370.525,143.188,369.992,142.239,369.455,141.354z"/><path d="M369.455,141.354c-1.065-1.898-2.309-3.674-3.674-5.334C367.146,137.68,368.39,139.456,369.455,141.354z"/><rect x="145.502" y="176.664" width="220.99" height="9.061"/><rect x="145.502" y="197.574" width="220.99" height="0.537"/><path d="M363.293,502.874c2.136,0,4.27,2.135,4.27,4.859c0,2.072-2.134,4.266-4.27,4.266H313.35      c-2.667,0-4.738-2.193-4.738-4.266c0-2.725,2.071-4.859,4.738-4.859H363.293z"/><path d="M361.754,145.797c0.358,0.59,0.712,1.244,1.007,1.893C362.466,147.042,362.112,146.387,361.754,145.797z"/><path d="M362.761,132.641c0.236,0.236,0.417,0.416,0.596,0.652c-0.237-0.236-0.417-0.473-0.654-0.652H362.761z"/><path d="M359.445,129.622c-1.007-0.828-1.956-1.598-3.02-2.309C357.432,128.024,358.438,128.793,359.445,129.622z"/><path d="M356.304,127.247c-1.123-0.768-2.252-1.48-3.437-2.129C354.052,125.766,355.181,126.479,356.304,127.247z"/><path d="M354.469,137.321c-0.538-0.475-1.07-0.885-1.602-1.301C353.398,136.372,353.931,136.846,354.469,137.321z"/><path d="M350.32,123.875c-0.711-0.418-1.423-0.711-2.135-1.008C348.897,123.165,349.609,123.458,350.32,123.875z"/><path d="M343.627,265.707h6.457c-1.065,0.359-2.135,0.539-3.257,0.539C345.756,266.246,344.691,266.066,343.627,265.707z"/><path d="M346.884,132.288c2.135,1.006,4.148,2.25,5.983,3.732c-0.591-0.418-1.187-0.828-1.776-1.244      C349.788,133.827,348.366,133.057,346.884,132.288z"/><path d="M346.827,132.288c-0.771-0.359-1.545-0.711-2.314-1.008C345.282,131.518,346.057,131.872,346.827,132.288z"/><path d="M340.306,120.618c-1.186-0.301-2.43-0.475-3.732-0.596C337.817,120.143,339.062,120.317,340.306,120.618z"/><path d="M339.594,129.799c-0.705-0.178-1.417-0.295-2.129-0.416C338.177,129.44,338.889,129.563,339.594,129.799z"/><path d="M336.812,129.266c-0.712-0.121-1.359-0.178-2.071-0.236C335.452,129.088,336.1,129.145,336.812,129.266z"/><path d="M332.425,119.784c1.367,0,2.668,0.059,3.971,0.238C335.093,119.842,333.792,119.784,332.425,119.784z"/><path d="M361.754,145.797c-1.897-3.264-4.443-6.104-7.285-8.477c-0.538-0.475-1.07-0.949-1.602-1.301      c-1.835-1.482-3.849-2.727-5.983-3.732h-0.057c-0.771-0.416-1.545-0.77-2.314-1.008c-1.598-0.652-3.258-1.127-4.919-1.48      c-0.705-0.236-1.417-0.359-2.129-0.416c-0.18-0.059-0.417-0.117-0.653-0.117c-0.712-0.121-1.359-0.178-2.071-0.236      c-0.948-0.064-1.84-0.121-2.789-0.121h-38.747v-1.064c2.666,0,4.743-1.66,4.743-4.328v-3.732h34.004c0.179,0,0.301,0,0.474,0      c1.367,0,2.668,0.059,3.971,0.238c0.063,0,0.121,0,0.178,0c1.303,0.121,2.547,0.295,3.732,0.596      c2.725,0.475,5.393,1.244,7.88,2.25c0.712,0.297,1.424,0.59,2.135,1.008c0.886,0.295,1.719,0.77,2.547,1.242      c1.185,0.648,2.313,1.361,3.437,2.129c0.057,0,0.057,0.066,0.122,0.066c1.063,0.711,2.013,1.48,3.02,2.309      c1.122,0.947,2.251,1.955,3.257,3.02c0.237,0.18,0.417,0.416,0.654,0.652c0.828,0.828,1.655,1.777,2.425,2.727      c1.365,1.66,2.608,3.436,3.674,5.334c0.537,0.885,1.07,1.834,1.544,2.84c0.476,0.949,0.887,1.957,1.303,2.963      c0.59,1.604,0,3.199-1.066,4.266l-3.141,4.269c-0.712,0.826-1.423,1.654-2.077,2.43c-0.531-3.673-1.655-7.232-3.257-10.431      C362.466,147.042,362.112,146.387,361.754,145.797z"/><path d="M283.015,265.707h6.457c-1.065,0.359-2.129,0.539-3.2,0.539C285.149,266.246,284.085,266.066,283.015,265.707z"/><path d="M288.939,119.252V68.776h-2.13v50.477H288.939z M297.947,63.973v55.811H277.8V63.973c0-2.129,2.072-4.32,4.208-4.32      h11.196C295.87,59.653,297.947,61.844,297.947,63.973z"/><path d="M286.81,46.258c0.533-0.533,0.533-1.598,0.533-2.129c0-1.07,0-2.137-0.533-2.727c0,0.59-0.538,1.656-0.538,2.727      C286.271,44.661,286.81,45.725,286.81,46.258z M294.273,36.602c1.597,2.135,2.072,4.801,2.072,7.527      c0,2.666-0.476,5.328-2.072,7.463c-1.069,1.66-2.136,3.258-3.796,4.328c-3.135,2.129-6.335,2.662-9.535-2.135l-1.538-2.668      c-1.604-2.191-2.136-4.859-2.136-7.521c0.531-2.725,1.065-5.393,2.604-7.527l3.2-5.393c1.603-2.129,4.271-2.668,6.399-1.598      c0.538,0.533,1.006,1.066,1.603,1.598L294.273,36.602z"/><path d="M297.947,123.516c0,2.668-2.077,4.328-4.743,4.328h-11.196c-2.136,0-4.208-1.66-4.208-4.328v-3.732h20.147V123.516z"/><path d="M247.466,59.653h11.201c2.662,0,4.739,2.191,4.739,4.32v55.811h-20.147V63.973      C243.259,61.844,245.394,59.653,247.466,59.653z M254.397,119.252V68.776h-2.129v50.477H254.397z"/><path d="M248.536,30.676c1.597-2.129,4.264-2.668,6.394-1.598c0.538,0.533,1.07,1.066,1.603,1.598l3.732,5.926      c1.064,2.135,1.602,4.801,1.602,7.527c0,2.666-0.537,5.328-2.134,7.463c-0.533,1.66-2.136,3.258-3.733,4.328      c-3.199,2.129-6.399,2.662-9.599-2.135l-1.539-2.668c-1.071-2.191-2.135-4.859-1.604-7.521c0-2.725,0.533-5.393,2.135-7.527      L248.536,30.676z M252.8,44.129c0-1.07,0-2.137-0.533-2.727c0,0.59,0,1.656-0.538,2.727c0,0.531,0.538,1.596,0.538,2.129      C252.8,45.725,252.8,44.661,252.8,44.129z"/><path d="M243.259,119.784h20.147v3.732c0,2.668-2.077,4.328-4.739,4.328h-11.201c-2.072,0-4.207-1.66-4.207-4.328V119.784z"/><path d="M222.228,265.707h6.752c-1.065,0.359-2.129,0.539-3.258,0.539C224.479,266.246,223.356,266.066,222.228,265.707z"/><path d="M218.791,44.129c0-1.07-0.532-2.137-0.532-2.727c-0.533,0.59-0.533,1.656-0.533,2.727c0,0.531,0,1.596,0.533,2.129      C218.259,45.725,218.791,44.661,218.791,44.129z M208.717,43.596c0-2.725,0.532-5.393,2.135-7.527l3.732-5.393      c1.065-2.129,3.675-2.668,5.81-1.598c0.533,0.533,1.064,1.066,1.597,1.598l3.732,5.926c1.064,2.135,2.135,4.801,1.603,7.527      c0,2.666-0.538,5.328-2.135,7.463c-0.532,1.66-2.135,3.258-3.732,4.328c-3.199,2.129-6.341,2.662-9.541-2.135l-1.597-2.668      C209.25,48.926,208.717,46.258,208.717,43.596z"/><path d="M219.855,119.252V68.776h-2.129v50.477H219.855z M228.922,119.784h-20.205V63.973c0-2.129,2.135-4.32,4.803-4.32h11.138      c2.128,0,4.264,2.191,4.264,4.32V119.784z"/><path d="M208.717,119.784h20.205v3.732c0,2.668-2.135,4.328-4.264,4.328H213.52c-2.668,0-4.803-1.66-4.803-4.328V119.784z"/><path d="M179.511,119.784c-1.366,0-2.667,0.059-4.027,0.238C176.844,119.842,178.146,119.784,179.511,119.784z"/><path d="M174.593,129.325c0.77-0.18,1.481-0.236,2.251-0.295C176.074,129.088,175.304,129.145,174.593,129.325z"/><path d="M174.709,120.079c-0.885,0.064-1.777,0.18-2.662,0.418C172.932,120.317,173.824,120.2,174.709,120.079z"/><path d="M174.24,129.383c-0.776,0.057-1.545,0.238-2.315,0.416C172.695,129.563,173.464,129.44,174.24,129.383z"/><path d="M159.308,19.422c-0.533-2.666,0.531-4.801,3.198-5.867l7.938-2.191c2.135-0.533,4.802,1.064,5.335,3.258      c0.532,2.666-0.533,5.334-3.2,5.865l-7.938,2.193C162.506,23.211,159.839,21.616,159.308,19.422z"/><path d="M172.047,120.497c-0.711,0.121-1.365,0.236-2.013,0.416C170.682,120.676,171.393,120.553,172.047,120.497z"/><path d="M161.32,134.243c3.142-2.135,6.757-3.674,10.605-4.443C168.251,130.627,164.698,132.167,161.32,134.243z"/><path d="M161.378,265.707h6.463c-1.007,0.359-2.077,0.539-3.2,0.539C163.513,266.246,162.449,266.066,161.378,265.707z"/><path d="M402.636,274.832H109.364v-9.125h52.014c1.071,0.359,2.135,0.539,3.263,0.539c1.123,0,2.192-0.18,3.2-0.539h54.387      c1.128,0.359,2.25,0.539,3.494,0.539c1.128,0,2.192-0.18,3.258-0.539h54.035c1.07,0.359,2.135,0.539,3.257,0.539      c1.071,0,2.135-0.18,3.2-0.539h54.155c1.064,0.359,2.129,0.539,3.2,0.539c1.122,0,2.191-0.18,3.257-0.539h51.662l0.89,1.008      V274.832z"/><path d="M170.034,120.913c-5.219,1.186-10.136,3.373-14.458,6.4c-1.54,1.063-3.02,2.191-4.386,3.494      C156.345,125.889,162.859,122.452,170.034,120.913z"/><path d="M162.506,26.413l2.135,8.061c0.532,2.129-0.532,4.795-3.199,5.328c-2.135,0.596-4.803-0.533-5.335-3.199l-2.135-7.523      c-0.532-2.666,0.538-5.391,3.2-5.867C159.308,22.68,161.974,24.278,162.506,26.413z"/><path d="M158.774,10.831c0.533,2.725-1.064,5.393-3.199,5.926c-2.667,0.531-5.271-1.064-5.867-3.201l-2.071-7.527      c-0.533-2.725,1.064-4.854,3.2-5.924c2.604-0.533,5.271,1.07,5.803,3.199L158.774,10.831z"/><path d="M166.771,172.867c-6.989,1.547-11.611-3.492-20.794-14.688c0.474-3.617,1.539-7.054,3.084-10.132l1.776,1.777      c7.938,10.187,12.202,14.515,14.336,14.515c2.071-0.596,6.341-5.391,13.805-14.515c3.199-3.732,7.406-8.592,12.735-15.049h0.539      c1.596-2.135,4.796-1.604,6.393,0c2.077,2.725,4.206,4.859,6.341,6.457c14.337,13.389,32.945,19.849,51.014,19.849      c18.07,0,36.138-6.46,50.951-19.849c2.135-1.598,4.265-3.732,6.399-6.457c1.006-1.006,2.071-1.424,3.141-1.424      c1.245,0,2.431,0.596,3.259,1.424c5.808,6.457,9.54,11.316,13.272,15.049c7.464,9.125,11.137,13.919,13.806,14.515      c2.128,0,5.86-4.328,14.394-14.515l1.54-2.135c1.602,3.199,2.726,6.758,3.257,10.431c-9.714,11.254-14.337,16.293-21.326,14.746      c-5.271-1.063-10.073-6.398-18.544-17.176c-2.666-3.199-5.866-6.931-9.599-11.259l-3.731,3.789      c-16.472,14.992-36.613,21.98-56.818,21.98c-20.204,0-40.351-6.988-56.816-21.98l-3.738-3.789      c-3.732,4.328-6.932,8.061-9.593,11.259C176.844,166.469,172.579,171.805,166.771,172.867z"/><path d="M148.702,147.69c2.667-5.393,6.874-9.658,11.669-12.914c-1.718,1.301-3.373,2.725-4.796,4.322      c-2.667,2.492-4.86,5.512-6.515,8.949L148.702,147.69z"/><path d="M139.045,148.817c2.135-6.162,5.63-11.611,10.189-16.176c0.475-0.475,0.949-1.008,1.423-1.418      c0.18-0.18,0.353-0.301,0.532-0.416c1.366-1.303,2.846-2.432,4.386-3.494c4.322-3.027,9.239-5.215,14.458-6.4      c0.648-0.18,1.302-0.295,2.013-0.416c0.885-0.238,1.777-0.354,2.662-0.418c0.237-0.057,0.538-0.057,0.775-0.057      c1.36-0.18,2.662-0.238,4.027-0.238h29.206v3.732c0,2.668,2.135,4.328,4.803,4.328h11.138c2.128,0,4.264-1.66,4.264-4.328      v-3.732h14.337v3.732c0,2.668,2.135,4.328,4.207,4.328h11.201c2.662,0,4.739-1.66,4.739-4.328v-3.732H277.8v3.732      c0,2.668,2.072,4.328,4.208,4.328h11.196v1.064H179.511c-0.891,0-1.777,0.057-2.667,0.121c-0.77,0.059-1.481,0.115-2.251,0.295      c-0.116-0.059-0.237,0-0.353,0.059c-0.776,0.057-1.545,0.18-2.315,0.416c-3.848,0.77-7.463,2.309-10.605,4.443      c-0.354,0.117-0.648,0.354-0.949,0.533c-4.796,3.256-9.002,7.521-11.669,12.914l0.359,0.357      c-1.545,3.078-2.61,6.516-3.084,10.132c-0.654-0.77-1.36-1.604-2.071-2.488l-3.731-4.269      C139.577,150.831,139.103,149.825,139.045,148.817z"/><path d="M145.502,198.111h220.99v-0.537h9.066v5.334c0,1.539-1.007,3.021-2.546,3.791H138.628      c-1.359-0.77-2.129-2.252-2.129-3.791v-5.334h9.002V198.111z"/><path d="M145.502,185.725v11.85H136.5v-16.646c0-2.666,1.539-4.264,4.206-4.264h4.796V185.725z"/><path d="M147.104,469.577c-3.199,0-6.399-1.008-8.534-3.199c-2.071-2.129-3.674-5.393-3.674-8.594      c0-3.255,1.603-6.392,3.674-8.585c2.135-2.133,5.335-3.73,8.534-3.73s6.336,1.598,8.471,3.73      c2.135,2.193,3.199,5.33,3.199,8.585c0,3.201-1.064,6.465-3.199,8.594C153.44,468.569,150.304,469.577,147.104,469.577z       M147.104,454.529c-1.071,0-1.603,0.596-2.135,1.127c-0.532,0.533-1.064,1.066-1.064,2.128c0,0.539,0.532,1.605,1.064,2.137      s1.064,0.531,2.135,0.531c0.533,0,1.597,0,2.129-0.531c0.475-0.531,0.475-1.598,0.475-2.137c0-1.062,0-1.595-0.475-2.128      C148.702,455.125,147.637,454.529,147.104,454.529z"/><path d="M145.977,158.18c-0.353,1.832-0.475,3.672-0.475,5.564v12.92h-4.796c-2.667,0-4.206,1.598-4.206,4.264v-17.184      c0-5.328,0.885-10.304,2.545-14.927c0.058,1.008,0.532,2.014,1.129,2.605l3.731,4.269      C144.617,156.576,145.323,157.41,145.977,158.18z"/><path d="M150.304,26.413l-8.001,2.135c-2.667,0.531-4.738-0.539-5.803-3.199c-0.532-2.137,1.065-4.861,3.136-5.393l8.534-2.135      c2.135-0.533,4.739,0.531,5.271,3.199C153.972,23.211,152.908,25.879,150.304,26.413z"/><path d="M149.234,132.641c-4.559,4.564-8.054,10.014-10.189,16.176c0-0.77,0.116-1.539,0.59-2.25      c2.372-6.047,6.283-11.137,11.022-15.344C150.183,131.633,149.708,132.167,149.234,132.641z"/><path d="M118.962,212.148c3.495-3.02,7.939-4.854,12.856-5.328C127.08,207.352,122.457,209.309,118.962,212.148z"/><path d="M131.049,197.754c-1.07,0.121-2.076,0.236-3.083,0.475C128.973,197.99,130.042,197.813,131.049,197.754z"/><path d="M118.962,212.148c-0.538,0.539-1.07,1.008-1.603,1.545C117.834,213.098,118.367,212.623,118.962,212.148z"/><path d="M114.577,203.973c3.79-2.84,8.291-4.854,13.209-5.744C122.932,199.234,118.546,201.248,114.577,203.973z"/><path d="M117.244,213.809c-0.179,0.121-0.301,0.297-0.417,0.418c-3.616,3.199-5.982,7.643-6.988,12.617      C110.845,221.395,113.333,216.893,117.244,213.809z"/><path d="M134.365,237.803l-25.001,27.668v-12.619l21.801-25.238c2.135-1.596,4.802-1.596,6.399,0      c5.808,6.457,9.54,11.26,13.272,15.582c7.938,9.125,11.669,13.926,13.804,13.926c2.604,0,6.335-4.801,14.337-13.926      c3.199-4.322,7.406-9.125,12.735-15.582h0.539c1.596-1.596,4.796-1.596,6.393,0c5.276,6.457,9.541,11.26,12.739,15.582      c7.938,9.125,11.67,13.926,14.338,13.926c2.135,0,5.867-4.801,13.805-13.926c3.2-4.322,7.407-9.125,12.741-15.582h0.533      c2.129-1.596,4.796-1.596,6.399,0c5.271,6.457,9.535,11.26,12.734,15.582c7.938,9.125,12.209,13.926,14.338,13.926      c2.135,0,6.342-4.801,13.806-13.926c3.731-4.322,7.469-9.125,13.272-15.582c1.063-0.77,2.251-1.186,3.38-1.186      c1.121,0,2.191,0.416,3.02,1.186c5.808,6.457,9.54,11.26,13.272,15.582c7.464,9.125,11.67,13.926,13.806,13.926      c2.66,0,6.398-4.801,14.394-13.926c3.142-4.322,7.406-9.125,12.678-15.582h0.596c1.539-1.596,4.738-1.596,6.336,0l21.806,25.238      v12.855h-0.89l-24.647-27.904l-9.004,11.26c-8.297,9.361-13.035,14.99-18.011,16.645h-6.457      c-4.976-1.654-9.599-7.283-17.479-16.645l-9.599-11.26l-9.599,11.26c-7.88,9.361-12.496,14.99-17.479,16.645h-6.457      c-4.976-1.654-9.536-7.283-17.479-16.645L256,237.803l-9.599,11.26c-7.88,9.361-12.503,14.99-17.421,16.645h-6.752      c-5.271-1.654-9.836-7.283-17.775-16.645c-2.667-3.732-5.808-7.465-9.54-11.26c-3.2,3.795-6.399,7.527-9.061,11.26      c-8.297,9.361-13.036,14.99-18.012,16.645h-6.463c-4.976-1.654-9.593-7.283-17.473-16.645      C141.238,245.33,138.039,241.598,134.365,237.803z"/><path d="M109.839,226.844c-0.123,0.828-0.302,1.662-0.359,2.488C109.537,228.441,109.658,227.613,109.839,226.844z"/><polygon points="109.364,265.535 109.364,265.707 109.184,265.707     "/><path d="M109.364,231.941v20.91c0-7.521-0.532-15.582,0-22.57c0-0.295,0.058-0.654,0.116-0.949      C109.422,230.225,109.364,231.051,109.364,231.941z"/><path d="M109.184,265.707l-1.423,1.604c-1.597,2.131-4.207,2.131-5.803,0.533c-0.179-0.18-0.359-0.355-0.475-0.59      c0.828-0.891,1.956-1.547,3.078-1.547H109.184z"/><path d="M118.962,212.148c-0.596,0.475-1.128,0.949-1.603,1.545c-0.058,0.059-0.058,0.059-0.116,0.115      c-3.911,3.084-6.399,7.586-7.405,13.035c-0.181,0.77-0.302,1.598-0.359,2.488c-0.058,0.295-0.116,0.654-0.116,0.949      c-0.532,6.988,0,15.049,0,22.57v12.619v0.064l-0.18,0.172h-4.623c-1.122,0-2.25,0.656-3.078,1.547      c-0.77-0.834-1.129-1.719-1.129-2.609v-32.703c0-9.125,3.675-17.715,10.074-24.172c1.244-1.367,2.667-2.668,4.148-3.797      c3.969-2.725,8.355-4.738,13.209-5.744c0.063,0,0.121,0,0.179,0c1.007-0.238,2.013-0.354,3.083-0.475      c1.065-0.117,2.187-0.18,3.316-0.18h2.135v5.334c0,1.539,0.77,3.021,2.129,3.791h-4.264c-0.891,0-1.719,0.063-2.546,0.121      C126.901,207.295,122.457,209.129,118.962,212.148z"/><path d="M109.364,287.752h293.272v-0.596h6.336c0.712,0,1.661,0,2.668,0v4.859c0,1.303-0.532,2.547-1.359,3.438      c-1.129-0.18-2.251-0.236-3.379-0.236h-302.34c-1.007,0-1.956,0.057-2.962,0.178c-0.711-0.891-1.245-2.076-1.245-3.379v-4.859      c0.833,0,1.719,0,2.668,0h6.341V287.752z"/><path d="M109.364,286.09v1.066h-6.341c-0.949,0-1.835,0-2.668,0v-0.828c1.366-0.18,2.79-0.238,4.207-0.238H109.364z"/><path d="M408.972,296.281H103.022h-0.353c-0.359-0.238-0.712-0.533-1.071-0.887c1.007-0.121,1.956-0.178,2.962-0.178h302.34      c1.128,0,2.25,0.057,3.379,0.236c-0.359,0.295-0.712,0.59-1.129,0.828H408.972z"/><path d="M109.364,274.832v11.258h-4.802c-1.417,0-2.841,0.059-4.207,0.238v-16.352c0-0.949,0.417-1.953,1.129-2.723      c0.116,0.234,0.295,0.41,0.475,0.59c1.597,1.598,4.206,1.598,5.803-0.533l1.423-1.604h0.18V274.832z"/><path d="M100.354,264.645c0,0.891,0.359,1.775,1.129,2.609c-0.712,0.77-1.129,1.773-1.129,2.723V264.645z"/><path d="M110.429,207.77c-6.399,6.457-10.074,15.047-10.074,24.172v32.703c0-11.793-0.532-24.176,0-35.428      c0.533-9.123,4.739-16.652,10.606-22.518c1.128-0.949,2.373-1.893,3.616-2.727C113.095,205.102,111.672,206.402,110.429,207.77z      "/><path d="M93.423,287.752c2.193-0.654,4.501-1.186,6.931-1.424v0.828c-0.59,0-1.122,0-1.597,0c-1.603,0-3.199,0.596-4.264,0.596      H93.423z"/><path d="M99.291,296.281l-3.2,0.596c-2.43,0.592-4.623,1.482-6.694,2.662c3.616-2.309,7.822-3.732,12.202-4.145      c0.359,0.354,0.712,0.648,1.071,0.887H99.291z"/><path d="M93.187,287.811c-5.867,2.014-11.138,5.213-15.64,9.541C81.869,292.965,87.205,289.707,93.187,287.811z"/><path d="M89.339,299.539c-0.597,0.359-1.128,0.711-1.661,1.07C88.211,300.191,88.743,299.84,89.339,299.539z"/><path d="M85.96,301.91c-0.711,0.59-1.423,1.242-2.071,1.898C84.537,303.098,85.249,302.441,85.96,301.91z"/><path d="M83.889,303.809l-0.538,0.531C83.53,304.16,83.709,303.924,83.889,303.809z"/><path d="M81.991,305.822c-0.417,0.588-0.892,1.186-1.302,1.775C81.042,307.008,81.517,306.41,81.991,305.822z"/><path d="M79.381,309.496c0.301-0.654,0.77-1.309,1.308-1.898C80.215,308.188,79.798,308.842,79.381,309.496z"/><path d="M77.547,297.352c-0.179,0.23-0.417,0.41-0.596,0.59l0.538-0.59H77.547z"/><path d="M113.628,332.246c-3.674-4.74-12.382-3.258-38.806,19.551v-12.031c27.668-22.512,39.338-21.445,45.68-13.387      c2.135,2.668,3.731,5.867,5.329,9.656c1.071,2.668,2.135,5.334,3.737,6.932c1.123,1.307,2.662,2.135,4.854,2.135      c6.219,0,18.011-6.516,41.889-27.848c1.597-1.66,4.264-1.66,5.867-0.59C202.318,334.969,228.922,343.5,256,343.5      c26.54,0,53.676-8.531,73.29-26.836c1.598-1.07,4.264-1.07,5.861,0c32.412,29.027,42.544,31.162,46.75,26.836v-0.533      c1.596-1.598,2.667-4.264,3.731-6.932h0.532c1.064-3.789,2.609-6.988,4.738-9.656h0.533c6.398-8.059,17.536-9.125,45.679,13.387      v11.973c-26.776-22.75-35.073-24.295-39.28-19.492c-1.064,1.596-2.662,4.32-3.731,6.988v0.531      c-1.597,3.201-3.2,6.398-5.329,9.125l-0.476,0.533c-7.468,8.059-20.735,8.059-55.809-23.045      c-21.274,17.717-48.879,26.244-76.49,26.244c-27.61,0-55.278-8.527-76.488-26.244c-36.139,31.637-49.411,31.104-56.875,22.512      c-2.135-2.727-3.674-6.457-5.277-9.656C116.295,336.566,115.23,333.842,113.628,332.246z"/><polygon points="74.348,151.959 76.419,160.545 67.949,163.213 65.282,154.622     "/><path d="M75.355,299.66c0.237-0.295,0.532-0.598,0.828-0.891C75.887,299.004,75.65,299.301,75.355,299.66z"/><path d="M75.592,318.734c-0.122,0.598-0.237,1.188-0.353,1.842C75.355,319.98,75.47,319.332,75.592,318.734z"/><path d="M74.938,323.236c0.063-0.826,0.121-1.654,0.301-2.424C75.059,321.582,75.001,322.41,74.938,323.236z"/><path d="M74.822,351.797v29.801H70.02c-2.071,0-4.206,2.195-4.206,4.855v-37.029c0,1.068,0.538,2.135,1.07,3.199      c1.597,1.604,4.264,2.135,6.399,0.537C73.815,352.688,74.29,352.27,74.822,351.797z"/><path d="M83.889,303.809c-0.179,0.115-0.359,0.352-0.538,0.531c-0.474,0.475-0.885,0.949-1.359,1.482      c-0.475,0.588-0.949,1.186-1.302,1.775c-0.538,0.59-1.007,1.244-1.308,1.898c-1.776,2.725-3.021,5.859-3.79,9.238      c-0.122,0.598-0.237,1.246-0.353,1.842c0,0.057,0,0.174,0,0.236c-0.18,0.77-0.237,1.598-0.301,2.424      c-0.058,0.834-0.116,1.662-0.116,2.553v13.977v12.031c-0.533,0.473-1.007,0.891-1.539,1.363      c-2.135,1.598-4.803,1.066-6.399-0.537c-0.533-1.064-1.07-2.131-1.07-3.199v-23.635c0-1.129,0.063-2.252,0.121-3.379      c0-0.117,0.058-0.297,0.058-0.418c0-0.295,0.058-0.648,0.122-0.943c0.058-1.068,0.237-2.135,0.469-3.197      c-0.058-0.18,0-0.301,0.063-0.418c0.237-1.188,0.532-2.371,0.885-3.559c0.36-1.244,0.77-2.424,1.245-3.609      c0-0.059,0-0.121,0.063-0.18c0.475-1.121,1.007-2.193,1.539-3.258c0.533-1.006,1.123-2.014,1.718-2.963      c0.411-0.59,0.77-1.127,1.187-1.66c0.173-0.236,0.295-0.41,0.474-0.592c0.411-0.594,0.885-1.125,1.359-1.66      c0.059-0.055,0.122-0.178,0.238-0.293c0.295-0.359,0.532-0.656,0.828-0.891c0.236-0.297,0.538-0.533,0.769-0.828      c0.179-0.18,0.417-0.359,0.596-0.59c4.502-4.328,9.772-7.527,15.64-9.541c0.058,0,0.179-0.059,0.236-0.059h1.071      c1.064,0,2.661-0.596,4.264-0.596c0.475,0,1.007,0,1.597,0v4.859c0,1.303,0.533,2.488,1.245,3.379      c-4.38,0.412-8.586,1.836-12.202,4.145h-0.058c-0.597,0.301-1.128,0.652-1.661,1.07c-0.591,0.41-1.187,0.826-1.719,1.301      C85.249,302.441,84.537,303.098,83.889,303.809z"/><path d="M74.822,390.723v21.98h-9.008v-26.25c0-2.66,2.135-4.855,4.206-4.855h4.803V390.723z"/><path d="M73.758,301.613c0.411-0.594,0.885-1.125,1.359-1.66C74.643,300.488,74.168,301.02,73.758,301.613z"/><path d="M73.758,301.613c-0.179,0.182-0.301,0.355-0.474,0.592C73.457,302.025,73.579,301.795,73.758,301.613z"/><path d="M72.097,303.865c-0.596,0.949-1.186,1.957-1.718,2.963C70.911,305.822,71.501,304.814,72.097,303.865z"/><polygon points="70.616,171.271 61.55,173.996 59.415,165.348 67.949,163.213     "/><path d="M70.378,306.828c-0.532,1.064-1.064,2.137-1.539,3.258C69.25,308.965,69.783,307.893,70.378,306.828z"/><path d="M74.822,413.234h362.292v-0.531h9.067v4.855c0,0.652-0.117,1.25-0.355,1.781c-0.77,1.598-2.428,2.488-4.441,2.488H70.02      c-1.539,0-3.135-0.891-3.847-2.488c-0.237-0.531-0.358-1.129-0.358-1.781v-4.855h9.008V413.234z"/><path d="M70.02,421.828h-1.776c-0.885-0.475-1.718-1.424-2.071-2.488C66.884,420.938,68.481,421.828,70.02,421.828z"/><path d="M68.776,310.266c-0.475,1.186-0.885,2.365-1.245,3.609C67.833,312.631,68.244,311.387,68.776,310.266z"/><path d="M67.532,313.875c-0.353,1.188-0.647,2.371-0.885,3.559C66.82,316.188,67.122,315.004,67.532,313.875z"/><path d="M66.583,317.852c-0.232,1.063-0.411,2.129-0.469,3.197C66.172,319.922,66.352,318.857,66.583,317.852z"/><path d="M65.935,322.41c0-0.117,0-0.297,0.058-0.418C65.993,322.113,65.935,322.293,65.935,322.41z"/><polygon points="63.152,146.567 65.282,154.622 56.812,157.287 54.676,149.292     "/><polygon points="56.812,157.287 59.415,165.348 50.944,168.072 48.276,160.012     "/><path d="M30.74,412.703h35.074v4.855c0,0.652,0.121,1.25,0.358,1.781c0.353,1.064,1.186,2.014,2.071,2.488H35.542v6.457h440.915      v-6.457h-32.879c1.063-0.531,1.832-1.424,2.248-2.488c0.238-0.531,0.355-1.129,0.355-1.781v-4.855h34.54      c2.667,0,4.803,2.193,4.803,4.855v15.523c0,2.191-2.136,4.328-4.803,4.328H30.74c-2.129,0-4.265-2.137-4.265-4.328v-15.523      C26.475,414.896,28.611,412.703,30.74,412.703z"/></g></g></g></g><text x="0" y="527" fill="#000000" font-size="5px" font-weight="bold" font-family="'Helvetica Neue', Helvetica, Arial-Unicode, Arial, Sans-serif">Created by ibrandify</text><text x="0" y="532" fill="#000000" font-size="5px" font-weight="bold" font-family="'Helvetica Neue', Helvetica, Arial-Unicode, Arial, Sans-serif">from the Noun Project</text></svg>