<svg xmlns="http://www.w3.org/2000/svg" data-name="solid line" viewBox="0 0 64 80" x="0px" y="0px"><path d="M32,45A17,17,0,1,0,15,28,17,17,0,0,0,32,45Zm5.648-15.473a1,1,0,0,0-.283.887l1.169,6.644-5.993-3.115a1,1,0,0,0-.93,0l-5.96,3.16,1.116-6.651a1,1,0,0,0-.291-.885l-4.855-4.692,6.678-1a1,1,0,0,0,.75-.55L32.01,17.26l3.015,6.046a1,1,0,0,0,.756.544l6.684.939Z"/><path d="M12,36.41v9.57a2,2,0,0,0,2,2l4.615.008-4.562,13.7a1,1,0,0,0,1.343,1.235l6.377-2.733,3.522,3.521A1,1,0,0,0,26,64a1,1,0,0,0,.937-.648l3.274-8.726.371.371a2.007,2.007,0,0,0,2.835,0l.372-.372,3.274,8.727a1,1,0,0,0,1.644.355l3.522-3.521,6.377,2.733a1,1,0,0,0,1.343-1.235L45.387,47.99,50,47.98a2,2,0,0,0,2-2l0-9.563,7-7a2.009,2.009,0,0,0,0-2.836L52,19.63V10a2,2,0,0,0-2-2L40.417,8l-7-7a2.057,2.057,0,0,0-2.835,0L23.59,8H14a2,2,0,0,0-2,2l0,9.634-6.87,6.89A1.994,1.994,0,0,0,5.1,29.338Zm1.437-15.383A2.031,2.031,0,0,0,14,19.63V10h9.59A2,2,0,0,0,25,9.417l7.006-7,7,7A2,2,0,0,0,40.41,10H50v9.63a2.044,2.044,0,0,0,.586,1.419l7,6.954-7,7A2,2,0,0,0,50,36.41l0,9.57-5.918.012h0L40.41,46A2,2,0,0,0,39,46.583l-7.006,7-1.47-1.47L25,46.584A2,2,0,0,0,23.593,46l-3.672-.008h0L14,45.98V36.41a2.013,2.013,0,0,0-.564-1.4l-6.9-7.066Z"/><text x="0" y="79" fill="#000000" font-size="5px" font-weight="bold" font-family="'Helvetica Neue', Helvetica, Arial-Unicode, Arial, Sans-serif">Created by ToZIcon</text><text x="0" y="84" fill="#000000" font-size="5px" font-weight="bold" font-family="'Helvetica Neue', Helvetica, Arial-Unicode, Arial, Sans-serif">from the Noun Project</text></svg>