<svg xmlns="http://www.w3.org/2000/svg" version="1.1" viewBox="-5.0 -10.0 110.0 110.0">
 <path d="m66.52 14.637c-0.003906 3.2852-2.668 5.9531-5.957 5.957h-21.125c-3.2891 0-5.957-2.668-5.957-5.957 0-3.293 2.668-5.9609 5.957-5.9609h21.125c3.2891 0.007813 5.9531 2.6719 5.957 5.9609zm-30.332 54.168v-0.003907c1.1953 0.003907 2.2734-0.71094 2.7305-1.8125 0.46094-1.1055 0.20703-2.375-0.63672-3.2188s-2.1133-1.0977-3.2148-0.63672c-1.1055 0.45703-1.8203 1.5391-1.8164 2.7305 0.003906 1.6211 1.3164 2.9336 2.9375 2.9375zm0-35.613v-0.003906c1.1914 0.003906 2.2656-0.70703 2.7266-1.8047 0.46094-1.0977 0.21875-2.3672-0.61719-3.2148-0.83594-0.84766-2.0977-1.1094-3.2031-0.66016-1.1055 0.44531-1.832 1.5117-1.8438 2.6992-0.007812 0.78516 0.29688 1.543 0.84766 2.1016 0.55078 0.55859 1.3047 0.875 2.0898 0.87891zm0 11.875v-0.003906c1.1914 0.003906 2.2695-0.71094 2.7305-1.8125 0.46094-1.1016 0.21094-2.3711-0.63281-3.2148-0.83984-0.84766-2.1094-1.1016-3.2148-0.64453-1.1016 0.45703-1.8203 1.5312-1.8203 2.7227 0 1.625 1.3125 2.9453 2.9375 2.9492zm0 11.875v-0.003906c1.1914 0.003906 2.2695-0.71094 2.7305-1.8125 0.46094-1.1016 0.21094-2.3711-0.63281-3.2148-0.83984-0.84766-2.1094-1.1016-3.2148-0.64453-1.1016 0.45703-1.8203 1.5312-1.8203 2.7227 0 1.625 1.3125 2.9453 2.9375 2.9492zm-10.145-38.484h6.9492-0.003907c1.3555 2.2891 3.8125 3.6953 6.4688 3.6992h21.105c2.6562-0.003906 5.1172-1.4102 6.4688-3.6992h6.9258v66.219h-47.914zm18.176 11.75c0.003906 0.42969 0.35156 0.77734 0.78125 0.78125h22.531c0.42969 0 0.78125-0.34766 0.78125-0.78125 0-0.42969-0.35156-0.78125-0.78125-0.78125h-22.531c-0.42969 0-0.78125 0.35156-0.78125 0.78125zm0 11.863v0.003907c0 0.42969 0.35156 0.78125 0.78125 0.78125h22.531c0.42969 0 0.78125-0.35156 0.78125-0.78125 0-0.43359-0.35156-0.78125-0.78125-0.78125h-22.531c-0.21484 0-0.41797 0.089843-0.5625 0.24609-0.14844 0.15234-0.22656 0.36328-0.21875 0.57422zm0 11.875v0.003907c0.003906 0.42969 0.35156 0.77344 0.78125 0.78125h22.531c0.42969 0 0.78125-0.35156 0.78125-0.78125 0-0.43359-0.35156-0.78125-0.78125-0.78125h-22.531c-0.21484 0-0.41797 0.089843-0.5625 0.24609-0.14844 0.15234-0.22656 0.36328-0.21875 0.57422zm0 11.875v0.003907c0.003906 0.42969 0.35156 0.77344 0.78125 0.78125h22.531c0.42969 0 0.78125-0.35156 0.78125-0.78125 0-0.43359-0.35156-0.78125-0.78125-0.78125h-22.531c-0.21484 0-0.42188 0.085937-0.56641 0.24219-0.14844 0.15625-0.22656 0.36328-0.21484 0.57812zm0 11.875v0.003907c0.003906 0.42969 0.35156 0.77344 0.78125 0.78125h22.531c0.42969 0 0.78125-0.35156 0.78125-0.78125 0-0.43359-0.35156-0.78125-0.78125-0.78125h-22.531c-0.21484 0-0.42188 0.085937-0.56641 0.24219-0.14844 0.15625-0.22656 0.36328-0.21484 0.57812zm-12.531-47.488c0 1.8281 1.1016 3.4727 2.7852 4.168 1.6875 0.69922 3.6289 0.3125 4.918-0.98047s1.6719-3.2344 0.97266-4.918c-0.70312-1.6875-2.3516-2.7812-4.1758-2.7773-2.4883 0.003906-4.5 2.0234-4.5 4.5078zm0 11.863v0.003907c-0.003906 1.8242 1.0938 3.4727 2.7812 4.1758 1.6836 0.69922 3.6289 0.3125 4.918-0.97656 1.293-1.293 1.6758-3.2344 0.97656-4.9219-0.69922-1.6836-2.3477-2.7812-4.1758-2.7773-1.1992 0-2.3477 0.48047-3.1953 1.3359-0.84375 0.85156-1.3125 2.0039-1.3047 3.2031zm0 11.875v0.003907c0 1.8242 1.1016 3.4688 2.7852 4.168 1.6875 0.69531 3.6289 0.30859 4.918-0.98438 1.2891-1.293 1.6719-3.2344 0.97266-4.918-0.70312-1.6836-2.3516-2.7812-4.1758-2.7773-1.2031 0.003906-2.3516 0.48438-3.1992 1.3398-0.84375 0.85547-1.3125 2.0117-1.3008 3.2109zm0 11.875v0.003907c0 1.8242 1.1016 3.4688 2.7852 4.168 1.6875 0.69531 3.6289 0.30859 4.918-0.98438 1.2891-1.293 1.6719-3.2344 0.97266-4.918-0.70312-1.6836-2.3516-2.7812-4.1758-2.7773-1.2031 0.003906-2.3516 0.48438-3.1992 1.3398-0.84375 0.85547-1.3125 2.0117-1.3008 3.2109zm0 11.875v0.003907c0 1.8242 1.1016 3.4688 2.7852 4.168 1.6875 0.69531 3.6289 0.30859 4.918-0.98438 1.2891-1.293 1.6719-3.2344 0.97266-4.918-0.70312-1.6836-2.3516-2.7812-4.1758-2.7773-1.2031 0.003906-2.3516 0.48438-3.1992 1.3398-0.84375 0.85547-1.3125 2.0117-1.3008 3.2109zm43.074-65.883h-7.2305c0.36719 0.89453 0.55469 1.8555 0.55078 2.8242-0.011719 0.76562-0.13672 1.5273-0.375 2.2578h7.0234c0.42969 0.007813 0.77344 0.35156 0.78125 0.78125v67.742c-0.007813 0.42969-0.35156 0.77344-0.78125 0.78125h-49.492c-0.42969-0.007813-0.77344-0.35156-0.78125-0.78125v-67.711c0.007813-0.42969 0.35156-0.77344 0.78125-0.78125h7.0547c-0.22656-0.73047-0.34375-1.4922-0.34375-2.2578-0.003907-0.96875 0.18359-1.9297 0.55078-2.8242h-7.2617c-3.2383 0-5.8633 2.625-5.8633 5.8633v67.711c0 3.2383 2.625 5.8633 5.8633 5.8633h49.523c1.5547 0 3.0469-0.61719 4.1445-1.7188 1.1016-1.0977 1.7188-2.5898 1.7188-4.1445v-67.711c0.007812-1.5586-0.60547-3.0586-1.707-4.1641-1.1016-1.1094-2.5977-1.7305-4.1562-1.7305zm-38.543 68.863c1.1953 0.003907 2.2734-0.71094 2.7305-1.8125 0.46094-1.1055 0.20703-2.375-0.63672-3.2188s-2.1133-1.0977-3.2148-0.63672c-1.1055 0.45703-1.8203 1.5391-1.8164 2.7305 0.003906 1.6094 1.2969 2.918 2.9062 2.9375z"/>
<!-- <text x="0.0" y="117.5" font-size="5.0" font-weight="bold" font-family="Arbeit Regular, Helvetica, Arial-Unicode, Arial, Sans-serif" fill="#000000">Created by Onadio Pori</text><text x="0.0" y="122.5" font-size="5.0" font-weight="bold" font-family="Arbeit Regular, Helvetica, Arial-Unicode, Arial, Sans-serif" fill="#000000">from Noun Project</text> -->
</svg>