<svg width="21" height="24" viewBox="0 0 21 24" fill="none" xmlns="http://www.w3.org/2000/svg">
<path d="M17.2134 12.7632C17.1855 9.73112 19.7597 8.25602 19.8774 8.18735C18.4195 6.11487 16.1598 5.83171 15.3657 5.80913C13.4678 5.6144 11.6268 6.91639 10.66 6.91639C9.67393 6.91639 8.18513 5.82795 6.58055 5.85993C4.51572 5.89098 2.58405 7.05656 1.52462 8.86657C-0.661777 12.5571 0.968857 17.9806 3.06359 20.9637C4.11144 22.4247 5.33587 24.0559 6.93852 23.9985C8.50644 23.9355 9.09211 23.0239 10.9842 23.0239C12.859 23.0239 13.4089 23.9985 15.0434 23.9618C16.7262 23.9355 17.7856 22.4943 18.7968 21.0201C20.0077 19.3456 20.494 17.6964 20.5133 17.6118C20.4737 17.5986 17.2453 16.3973 17.2134 12.7632Z" fill="black"/>
<path d="M14.1258 3.84673C14.9691 2.81849 15.5461 1.41959 15.386 0C14.1654 0.052682 12.639 0.823156 11.76 1.82882C10.9823 2.715 10.2876 4.16752 10.4671 5.53349C11.8381 5.63321 13.2459 4.85897 14.1258 3.84673Z" fill="black"/>
</svg>
