<svg width="25" height="24" viewBox="0 0 25 24" fill="none" xmlns="http://www.w3.org/2000/svg">
<path fill-rule="evenodd" clip-rule="evenodd" d="M24.5 12.2728C24.5 11.4219 24.4221 10.6037 24.2774 9.81826H12.7449V14.4601H19.3349C19.0511 15.9601 18.1883 17.231 16.8915 18.0819V21.0928H20.8488C23.1642 19.0037 24.5 15.9274 24.5 12.2728Z" fill="#4285F4"/>
<path fill-rule="evenodd" clip-rule="evenodd" d="M12.7449 24C16.0511 24 18.8228 22.9255 20.8488 21.0928L16.8915 18.0819C15.795 18.8019 14.3924 19.2273 12.7449 19.2273C9.55569 19.2273 6.85624 17.1164 5.89334 14.28H1.80242V17.3891C3.81727 21.3109 7.95828 24 12.7449 24Z" fill="#34A853"/>
<path fill-rule="evenodd" clip-rule="evenodd" d="M5.89334 14.28C5.64844 13.56 5.50929 12.791 5.50929 12.0001C5.50929 11.2092 5.64843 10.4401 5.89333 9.72007V6.61097H1.80241C0.973099 8.23098 0.5 10.0637 0.5 12.0001C0.5 13.9364 0.973105 15.7691 1.80242 17.3891L5.89334 14.28Z" fill="#FBBC05"/>
<path fill-rule="evenodd" clip-rule="evenodd" d="M12.7449 4.77273C14.5427 4.77273 16.1568 5.37818 17.4258 6.56728L20.9379 3.12546C18.8173 1.18909 16.0455 0 12.7449 0C7.95828 0 3.81726 2.68915 1.80241 6.61097L5.89333 9.72007C6.85623 6.8837 9.55569 4.77273 12.7449 4.77273Z" fill="#EA4335"/>
</svg>
