<svg width="82" height="82" viewBox="0 0 82 82" fill="none" xmlns="http://www.w3.org/2000/svg">
<rect width="82" height="82" rx="8" fill="#087CE7"/>
<rect width="60.2188" height="60.2188" transform="translate(10.8906 10.8906)" fill="#087CE7"/>
<path fill-rule="evenodd" clip-rule="evenodd" d="M18.418 23.4349C18.418 17.8919 22.9114 13.3984 28.4544 13.3984C33.131 13.3984 37.0604 16.597 38.1747 20.9258H52.291C58.5269 20.9258 63.582 25.9809 63.582 32.2168C63.582 38.4527 58.5269 43.5078 52.291 43.5078H29.709C26.2446 43.5078 23.4362 46.3163 23.4362 49.7806C23.4362 53.2449 26.2446 56.0534 29.709 56.0534H55.2535L51.8359 52.8716C50.8217 51.9274 50.765 50.3396 51.7092 49.3254C52.6533 48.3113 54.2411 48.2545 55.2553 49.1987L62.3879 55.8388C63.98 57.3212 63.98 59.8037 62.3879 61.2861L55.2553 67.9263C54.2411 68.8704 52.6533 68.8137 51.7092 67.7995C50.765 66.7854 50.8217 65.1976 51.8359 64.2534L55.2535 61.0716H29.709C23.4731 61.0716 18.418 56.0165 18.418 49.7806C18.418 43.5447 23.4731 38.4896 29.709 38.4896H52.291C55.7553 38.4896 58.5638 35.6812 58.5638 32.2168C58.5638 28.7524 55.7553 25.944 52.291 25.944H38.1747C37.0604 30.2728 33.131 33.4713 28.4544 33.4713C22.9114 33.4713 18.418 28.9779 18.418 23.4349ZM28.4544 18.4167C25.6829 18.4167 23.4362 20.6634 23.4362 23.4349C23.4362 26.2064 25.6829 28.4531 28.4544 28.4531C31.2259 28.4531 33.4727 26.2064 33.4727 23.4349C33.4727 20.6634 31.2259 18.4167 28.4544 18.4167Z" fill="white"/>
</svg>
